<?xml version="1.0" standalone="no"?>
<!DOCTYPE svg PUBLIC "-//W3C//DTD SVG 20010904//EN"
 "http://www.w3.org/TR/2001/REC-SVG-20010904/DTD/svg10.dtd">
<svg version="1.0" xmlns="http://www.w3.org/2000/svg"
 width="800.000000pt" height="800.000000pt" viewBox="0 0 800.000000 800.000000"
 preserveAspectRatio="xMidYMid meet">
<metadata>
Created by potrace 1.11, written by Peter Selinger 2001-2013
</metadata>
<g transform="translate(0.000000,800.000000) scale(0.100000,-0.100000)"
fill="#000000" stroke="none">
<path d="M3741 7020 c-11 -8 -24 -26 -29 -39 -6 -18 -17 -25 -38 -27 -16 -1
-56 -7 -89 -13 -57 -10 -74 -14 -127 -26 -13 -3 -32 -7 -43 -9 -11 -3 -67 -16
-125 -31 -143 -36 -153 -37 -184 -25 -36 13 -176 -23 -210 -55 -14 -12 -59
-37 -103 -55 -124 -51 -215 -92 -391 -176 -153 -73 -269 -141 -397 -232 -81
-59 -212 -159 -225 -172 -3 -3 -48 -41 -100 -85 -52 -44 -115 -99 -139 -122
l-45 -41 -28 23 c-23 20 -33 22 -59 15 -35 -10 -52 -23 -121 -91 -54 -53 -59
-72 -23 -95 14 -9 25 -21 25 -28 0 -6 -32 -47 -71 -91 -191 -215 -225 -262
-303 -418 -137 -276 -162 -403 -121 -620 9 -49 39 -128 54 -141 21 -18 93 -42
156 -51 28 -4 64 -9 80 -12 17 -2 134 -6 260 -8 127 -2 247 -4 268 -4 20 -1
37 -5 37 -9 0 -7 -83 -36 -190 -67 -3 -1 -24 -7 -47 -13 -35 -10 -46 -21 -68
-60 l-26 -48 -100 2 c-69 1 -101 -2 -104 -9 -2 -7 -9 -32 -17 -56 -9 -31 -19
-45 -33 -47 -11 -1 -38 -5 -60 -8 -22 -3 -74 -9 -116 -12 -73 -7 -77 -8 -94
-40 -12 -22 -18 -52 -16 -83 1 -45 0 -49 -26 -54 -43 -9 -109 -63 -139 -114
-27 -46 -27 -46 -10 -97 22 -70 32 -84 48 -68 19 19 36 14 52 -16 15 -29 15
-120 1 -154 -10 -25 20 -24 75 3 53 26 74 29 217 30 82 1 115 5 124 15 22 27
28 3 23 -89 -3 -50 -6 -150 -7 -222 l-2 -130 -50 -54 c-27 -29 -65 -68 -84
-85 -42 -39 -65 -84 -93 -183 -28 -103 -31 -345 -5 -467 10 -44 16 -80 15 -82
-4 -3 -70 -13 -128 -20 -55 -6 -131 -18 -195 -31 -11 -2 -36 -6 -55 -9 -19 -3
-42 -7 -50 -9 -8 -2 -28 -7 -45 -9 -69 -12 -285 -79 -348 -108 -76 -35 -82
-42 -92 -113 -6 -49 -6 -50 35 -86 23 -20 80 -56 127 -79 87 -43 471 -174 658
-225 55 -15 120 -33 145 -40 25 -8 56 -16 70 -19 89 -17 646 -161 648 -168 2
-4 24 -34 48 -65 48 -62 69 -77 124 -87 19 -3 46 -8 60 -11 13 -3 42 -7 65
-10 22 -3 51 -8 65 -10 14 -3 45 -7 70 -10 25 -3 63 -7 85 -10 22 -3 65 -7 95
-10 30 -2 73 -7 95 -9 43 -5 124 -12 250 -21 44 -4 100 -8 125 -10 521 -43
1936 -55 2320 -20 25 2 97 6 160 10 63 3 131 8 150 10 19 2 68 6 108 9 41 4
90 8 110 11 20 2 62 7 92 10 58 6 241 33 275 40 120 25 240 56 252 66 7 6 27
37 44 68 l31 56 352 88 c193 49 358 90 366 92 8 2 65 15 125 29 131 29 284 77
455 141 69 25 132 48 141 50 9 2 35 12 58 23 23 12 54 23 69 27 43 10 105 57
115 89 13 40 -7 100 -46 137 -41 39 -119 75 -206 94 -11 3 -31 8 -43 11 -13 3
-32 7 -43 9 -221 43 -288 55 -330 59 -79 9 -106 17 -99 28 10 16 18 140 18
290 1 99 4 134 12 127 15 -12 71 16 78 39 11 37 -4 189 -29 298 -8 34 -17 75
-20 90 -8 39 -13 59 -15 59 -1 0 -3 10 -6 23 -20 109 -113 298 -178 365 -94
95 -126 111 -391 192 -42 12 -54 36 -20 41 150 19 166 20 305 30 52 4 97 11
98 16 2 5 10 4 17 -2 9 -7 23 -9 37 -4 13 4 33 7 45 5 39 -4 46 37 23 122 -25
90 -25 91 4 106 27 15 58 73 80 151 14 51 18 74 31 185 11 91 5 379 -9 473
-32 205 -222 546 -437 787 -15 17 -75 86 -135 155 -114 132 -204 224 -322 329
-40 36 -72 68 -72 72 0 4 9 9 20 12 16 4 20 14 20 44 0 34 -7 47 -51 93 -43
44 -134 100 -143 88 -31 -42 -42 -66 -38 -78 3 -8 -17 2 -44 23 -63 48 -240
160 -329 209 -285 159 -726 336 -1002 403 -74 18 -77 21 -74 71 4 44 -66 74
-175 74 -83 0 -114 -18 -114 -66 0 -24 -2 -25 -42 -19 -24 3 -63 7 -88 9 -137
13 -208 19 -233 20 -16 1 -34 8 -40 17 -24 32 -62 43 -154 44 -69 1 -97 -3
-112 -15z"/>
</g>
</svg>
